<svg width="256" height="256" viewBox="0 0 256 256" fill="none" xmlns="http://www.w3.org/2000/svg">
<path d="M196 0H60C26.8629 0 0 26.8629 0 60V196C0 229.137 26.8629 256 60 256H196C229.137 256 256 229.137 256 196V60C256 26.8629 229.137 0 196 0Z" fill="#EEEFF4"/>
<g filter="url(#filter0_d_20_1500)">
<path fill-rule="evenodd" clip-rule="evenodd" d="M117.526 151.771C65.3219 151.771 23.0015 123.25 23.0015 88.0672C23.0015 52.8845 65.3219 24.3634 117.526 24.3634C169.731 24.3634 212.051 52.8845 212.051 88.0672C212.051 123.25 169.731 151.771 117.526 151.771ZM131.995 49.2694C92.315 49.2694 60.148 68.7676 60.148 92.8199C60.148 116.872 92.315 136.37 131.995 136.37C171.675 136.37 200.958 123.04 200.958 92.8199C200.958 62.6093 171.675 49.2694 131.995 49.2694Z" fill="url(#paint0_linear_20_1500)"/>
<path fill-rule="evenodd" clip-rule="evenodd" d="M166.891 122.926C166.891 122.926 172.649 124.65 175.995 126.33C177.156 126.913 179.164 128.076 180.613 129.604C182.032 131.1 182.724 132.615 182.724 132.615L205.418 170.589L168.738 170.605L151.585 138.639C151.585 138.639 148.073 132.65 145.911 130.913C144.109 129.465 143.34 128.949 141.557 128.949C140.316 128.949 132.842 128.949 132.842 128.949L132.849 170.582L100.391 170.595V64.2474H165.571C165.571 64.2474 195.259 64.7788 195.259 92.8091C195.259 120.839 166.891 122.926 166.891 122.926ZM152.773 87.3158L133.123 87.3032L133.113 105.386L152.773 105.38C152.773 105.38 161.877 105.352 161.877 96.1813C161.877 86.8263 152.773 87.3158 152.773 87.3158Z" fill="url(#paint1_linear_20_1500)"/>
</g>
<path d="M187.461 209.976L186.117 216.264H191.877V223.656H184.533L182.949 231H175.269L176.853 223.656H168.885L167.301 231H159.621L161.205 223.656H154.101V216.264H162.789L164.133 209.976H157.173V202.584H165.669L167.205 195.48H174.885L173.349 202.584H181.317L182.853 195.48H190.533L188.997 202.584H194.949V209.976H187.461ZM179.781 209.976H171.813L170.469 216.264H178.437L179.781 209.976ZM198.707 213C198.707 207.496 199.763 203.16 201.875 199.992C204.019 196.824 207.459 195.24 212.195 195.24C216.931 195.24 220.355 196.824 222.467 199.992C224.611 203.16 225.683 207.496 225.683 213C225.683 218.568 224.611 222.936 222.467 226.104C220.355 229.272 216.931 230.856 212.195 230.856C207.459 230.856 204.019 229.272 201.875 226.104C199.763 222.936 198.707 218.568 198.707 213ZM217.619 213C217.619 209.768 217.267 207.288 216.563 205.56C215.859 203.8 214.403 202.92 212.195 202.92C209.987 202.92 208.531 203.8 207.827 205.56C207.123 207.288 206.771 209.768 206.771 213C206.771 215.176 206.899 216.984 207.155 218.424C207.411 219.832 207.923 220.984 208.691 221.88C209.491 222.744 210.659 223.176 212.195 223.176C213.731 223.176 214.883 222.744 215.651 221.88C216.451 220.984 216.979 219.832 217.235 218.424C217.491 216.984 217.619 215.176 217.619 213Z" fill="#165CAA"/>
<defs>
<filter id="filter0_d_20_1500" x="16" y="5" width="207" height="180" filterUnits="userSpaceOnUse" color-interpolation-filters="sRGB">
<feFlood flood-opacity="0" result="BackgroundImageFix"/>
<feColorMatrix in="SourceAlpha" type="matrix" values="0 0 0 0 0 0 0 0 0 0 0 0 0 0 0 0 0 0 127 0" result="hardAlpha"/>
<feOffset dx="-2" dy="-2"/>
<feGaussianBlur stdDeviation="2"/>
<feComposite in2="hardAlpha" operator="out"/>
<feColorMatrix type="matrix" values="0 0 0 0 0 0 0 0 0 0 0 0 0 0 0 0 0 0 0.25 0"/>
<feBlend mode="normal" in2="BackgroundImageFix" result="effect1_dropShadow_20_1500"/>
<feBlend mode="normal" in="SourceGraphic" in2="effect1_dropShadow_20_1500" result="shape"/>
</filter>
<linearGradient id="paint0_linear_20_1500" x1="23.0015" y1="24.3634" x2="141.094" y2="199.592" gradientUnits="userSpaceOnUse">
<stop stop-color="#CBCED0"/>
<stop offset="1" stop-color="#84838B"/>
</linearGradient>
<linearGradient id="paint1_linear_20_1500" x1="100.391" y1="64.2637" x2="204.602" y2="171.383" gradientUnits="userSpaceOnUse">
<stop stop-color="#266CC2"/>
<stop offset="1" stop-color="#165CAA"/>
</linearGradient>
</defs>
</svg>
