<svg width="256" height="256" viewBox="0 0 256 256" fill="none" xmlns="http://www.w3.org/2000/svg">
<path d="M196 0H60C26.8629 0 0 26.8629 0 60V196C0 229.137 26.8629 256 60 256H196C229.137 256 256 229.137 256 196V60C256 26.8629 229.137 0 196 0Z" fill="#EEEFF4"/>
<g filter="url(#filter0_d_20_1591)">
<path fill-rule="evenodd" clip-rule="evenodd" d="M117.526 151.771C65.3219 151.771 23.0015 123.25 23.0015 88.0672C23.0015 52.8845 65.3219 24.3634 117.526 24.3634C169.731 24.3634 212.051 52.8845 212.051 88.0672C212.051 123.25 169.731 151.771 117.526 151.771ZM131.995 49.2694C92.315 49.2694 60.148 68.7676 60.148 92.8199C60.148 116.872 92.315 136.37 131.995 136.37C171.675 136.37 200.958 123.04 200.958 92.8199C200.958 62.6093 171.675 49.2694 131.995 49.2694Z" fill="url(#paint0_linear_20_1591)"/>
<path fill-rule="evenodd" clip-rule="evenodd" d="M166.891 122.926C166.891 122.926 172.649 124.65 175.995 126.33C177.156 126.913 179.164 128.076 180.613 129.604C182.032 131.1 182.724 132.615 182.724 132.615L205.418 170.589L168.738 170.605L151.585 138.639C151.585 138.639 148.073 132.65 145.911 130.913C144.109 129.465 143.34 128.949 141.557 128.949C140.316 128.949 132.842 128.949 132.842 128.949L132.849 170.582L100.391 170.595V64.2474H165.571C165.571 64.2474 195.259 64.7788 195.259 92.8091C195.259 120.839 166.891 122.926 166.891 122.926ZM152.773 87.3158L133.123 87.3032L133.113 105.386L152.773 105.38C152.773 105.38 161.877 105.352 161.877 96.1814C161.877 86.8263 152.773 87.3158 152.773 87.3158Z" fill="url(#paint1_linear_20_1591)"/>
</g>
<path d="M178.437 209.976L177.093 216.264H182.853V223.656H175.509L173.925 231H166.245L167.829 223.656H159.861L158.277 231H150.597L152.181 223.656H145.077V216.264H153.765L155.109 209.976H148.149V202.584H156.645L158.181 195.48H165.861L164.325 202.584H172.293L173.829 195.48H181.509L179.973 202.584H185.925V209.976H178.437ZM170.757 209.976H162.789L161.445 216.264H169.413L170.757 209.976ZM188.819 203.592V195.96H202.115V231H193.571V203.592H188.819ZM207.73 213C207.73 207.496 208.786 203.16 210.898 199.992C213.042 196.824 216.482 195.24 221.218 195.24C225.954 195.24 229.378 196.824 231.49 199.992C233.634 203.16 234.706 207.496 234.706 213C234.706 218.568 233.634 222.936 231.49 226.104C229.378 229.272 225.954 230.856 221.218 230.856C216.482 230.856 213.042 229.272 210.898 226.104C208.786 222.936 207.73 218.568 207.73 213ZM226.642 213C226.642 209.768 226.29 207.288 225.586 205.56C224.882 203.8 223.426 202.92 221.218 202.92C219.01 202.92 217.554 203.8 216.85 205.56C216.146 207.288 215.794 209.768 215.794 213C215.794 215.176 215.922 216.984 216.178 218.424C216.434 219.832 216.946 220.984 217.714 221.88C218.514 222.744 219.682 223.176 221.218 223.176C222.754 223.176 223.906 222.744 224.674 221.88C225.474 220.984 226.002 219.832 226.258 218.424C226.514 216.984 226.642 215.176 226.642 213Z" fill="#165CAA"/>
<defs>
<filter id="filter0_d_20_1591" x="16" y="5" width="207" height="180" filterUnits="userSpaceOnUse" color-interpolation-filters="sRGB">
<feFlood flood-opacity="0" result="BackgroundImageFix"/>
<feColorMatrix in="SourceAlpha" type="matrix" values="0 0 0 0 0 0 0 0 0 0 0 0 0 0 0 0 0 0 127 0" result="hardAlpha"/>
<feOffset dx="-2" dy="-2"/>
<feGaussianBlur stdDeviation="2"/>
<feComposite in2="hardAlpha" operator="out"/>
<feColorMatrix type="matrix" values="0 0 0 0 0 0 0 0 0 0 0 0 0 0 0 0 0 0 0.25 0"/>
<feBlend mode="normal" in2="BackgroundImageFix" result="effect1_dropShadow_20_1591"/>
<feBlend mode="normal" in="SourceGraphic" in2="effect1_dropShadow_20_1591" result="shape"/>
</filter>
<linearGradient id="paint0_linear_20_1591" x1="23.0015" y1="24.3634" x2="141.094" y2="199.592" gradientUnits="userSpaceOnUse">
<stop stop-color="#CBCED0"/>
<stop offset="1" stop-color="#84838B"/>
</linearGradient>
<linearGradient id="paint1_linear_20_1591" x1="100.391" y1="64.2637" x2="204.602" y2="171.383" gradientUnits="userSpaceOnUse">
<stop stop-color="#266CC2"/>
<stop offset="1" stop-color="#165CAA"/>
</linearGradient>
</defs>
</svg>
