<svg width="256" height="256" viewBox="0 0 256 256" fill="none" xmlns="http://www.w3.org/2000/svg">
<path d="M196 0H60C26.8629 0 0 26.8629 0 60V196C0 229.137 26.8629 256 60 256H196C229.137 256 256 229.137 256 196V60C256 26.8629 229.137 0 196 0Z" fill="#EEEFF4"/>
<g filter="url(#filter0_d_20_1609)">
<path fill-rule="evenodd" clip-rule="evenodd" d="M117.527 151.771C65.3222 151.771 23.0017 123.25 23.0017 88.0672C23.0017 52.8845 65.3222 24.3634 117.527 24.3634C169.732 24.3634 212.052 52.8845 212.052 88.0672C212.052 123.25 169.732 151.771 117.527 151.771ZM131.995 49.2694C92.3153 49.2694 60.1482 68.7676 60.1482 92.8199C60.1482 116.872 92.3153 136.37 131.995 136.37C171.675 136.37 200.958 123.04 200.958 92.8199C200.958 62.6093 171.675 49.2694 131.995 49.2694Z" fill="url(#paint0_linear_20_1609)"/>
<path fill-rule="evenodd" clip-rule="evenodd" d="M166.891 122.926C166.891 122.926 172.649 124.65 175.995 126.33C177.156 126.913 179.164 128.076 180.613 129.604C182.032 131.1 182.724 132.615 182.724 132.615L205.418 170.589L168.738 170.605L151.585 138.639C151.585 138.639 148.073 132.65 145.911 130.913C144.109 129.465 143.34 128.949 141.557 128.949C140.316 128.949 132.842 128.949 132.842 128.949L132.849 170.582L100.391 170.595V64.2474H165.571C165.571 64.2474 195.259 64.7788 195.259 92.8091C195.259 120.839 166.891 122.926 166.891 122.926ZM152.773 87.3158L133.123 87.3032L133.113 105.386L152.773 105.38C152.773 105.38 161.877 105.352 161.877 96.1814C161.877 86.8263 152.773 87.3158 152.773 87.3158Z" fill="url(#paint1_linear_20_1609)"/>
</g>
<path d="M180.383 209.976L179.039 216.264H184.799V223.656H177.455L175.871 231H168.191L169.775 223.656H161.807L160.223 231H152.543L154.127 223.656H147.023V216.264H155.711L157.055 209.976H150.095V202.584H158.591L160.127 195.48H167.807L166.271 202.584H174.239L175.775 195.48H183.455L181.919 202.584H187.871V209.976H180.383ZM172.703 209.976H164.735L163.391 216.264H171.359L172.703 209.976ZM190.765 203.592V195.96H204.061V231H195.517V203.592H190.765ZM209.388 224.424C210.476 223.56 210.972 223.16 210.876 223.224C214.012 220.632 216.476 218.504 218.268 216.84C220.092 215.176 221.628 213.432 222.876 211.608C224.124 209.784 224.748 208.008 224.748 206.28C224.748 204.968 224.444 203.944 223.836 203.208C223.228 202.472 222.316 202.104 221.1 202.104C219.884 202.104 218.924 202.568 218.22 203.496C217.548 204.392 217.212 205.672 217.212 207.336H209.292C209.356 204.616 209.932 202.344 211.02 200.52C212.14 198.696 213.596 197.352 215.388 196.488C217.212 195.624 219.228 195.192 221.436 195.192C225.244 195.192 228.108 196.168 230.028 198.12C231.98 200.072 232.956 202.616 232.956 205.752C232.956 209.176 231.788 212.36 229.452 215.304C227.116 218.216 224.14 221.064 220.524 223.848H233.484V230.52H209.388V224.424Z" fill="#165CAA"/>
<defs>
<filter id="filter0_d_20_1609" x="16" y="5" width="207" height="180" filterUnits="userSpaceOnUse" color-interpolation-filters="sRGB">
<feFlood flood-opacity="0" result="BackgroundImageFix"/>
<feColorMatrix in="SourceAlpha" type="matrix" values="0 0 0 0 0 0 0 0 0 0 0 0 0 0 0 0 0 0 127 0" result="hardAlpha"/>
<feOffset dx="-2" dy="-2"/>
<feGaussianBlur stdDeviation="2"/>
<feComposite in2="hardAlpha" operator="out"/>
<feColorMatrix type="matrix" values="0 0 0 0 0 0 0 0 0 0 0 0 0 0 0 0 0 0 0.25 0"/>
<feBlend mode="normal" in2="BackgroundImageFix" result="effect1_dropShadow_20_1609"/>
<feBlend mode="normal" in="SourceGraphic" in2="effect1_dropShadow_20_1609" result="shape"/>
</filter>
<linearGradient id="paint0_linear_20_1609" x1="23.0017" y1="24.3634" x2="141.094" y2="199.592" gradientUnits="userSpaceOnUse">
<stop stop-color="#CBCED0"/>
<stop offset="1" stop-color="#84838B"/>
</linearGradient>
<linearGradient id="paint1_linear_20_1609" x1="100.391" y1="64.2637" x2="204.602" y2="171.383" gradientUnits="userSpaceOnUse">
<stop stop-color="#266CC2"/>
<stop offset="1" stop-color="#165CAA"/>
</linearGradient>
</defs>
</svg>
