<svg width="256" height="256" viewBox="0 0 256 256" fill="none" xmlns="http://www.w3.org/2000/svg">
<path d="M196 0H60C26.8629 0 0 26.8629 0 60V196C0 229.137 26.8629 256 60 256H196C229.137 256 256 229.137 256 196V60C256 26.8629 229.137 0 196 0Z" fill="#EEEFF4"/>
<g filter="url(#filter0_d_20_1618)">
<path fill-rule="evenodd" clip-rule="evenodd" d="M117.527 151.771C65.3222 151.771 23.0017 123.25 23.0017 88.0672C23.0017 52.8845 65.3222 24.3634 117.527 24.3634C169.732 24.3634 212.052 52.8845 212.052 88.0672C212.052 123.25 169.732 151.771 117.527 151.771ZM131.995 49.2694C92.3153 49.2694 60.1482 68.7676 60.1482 92.8199C60.1482 116.872 92.3153 136.37 131.995 136.37C171.675 136.37 200.958 123.04 200.958 92.8199C200.958 62.6093 171.675 49.2694 131.995 49.2694Z" fill="url(#paint0_linear_20_1618)"/>
<path fill-rule="evenodd" clip-rule="evenodd" d="M166.891 122.926C166.891 122.926 172.649 124.65 175.995 126.33C177.156 126.913 179.164 128.076 180.613 129.604C182.032 131.1 182.724 132.615 182.724 132.615L205.418 170.589L168.738 170.605L151.585 138.639C151.585 138.639 148.073 132.65 145.911 130.913C144.109 129.465 143.34 128.949 141.557 128.949C140.316 128.949 132.842 128.949 132.842 128.949L132.849 170.582L100.391 170.595V64.2474H165.571C165.571 64.2474 195.259 64.7788 195.259 92.8091C195.259 120.839 166.891 122.926 166.891 122.926ZM152.773 87.3158L133.123 87.3032L133.113 105.386L152.773 105.38C152.773 105.38 161.877 105.352 161.877 96.1814C161.877 86.8263 152.773 87.3158 152.773 87.3158Z" fill="url(#paint1_linear_20_1618)"/>
</g>
<path d="M179.562 209.976L178.218 216.264H183.978V223.656H176.634L175.05 231H167.37L168.954 223.656H160.986L159.402 231H151.722L153.306 223.656H146.202V216.264H154.89L156.234 209.976H149.274V202.584H157.77L159.306 195.48H166.986L165.45 202.584H173.418L174.954 195.48H182.634L181.098 202.584H187.05V209.976H179.562ZM171.882 209.976H163.914L162.57 216.264H170.538L171.882 209.976ZM189.944 203.592V195.96H203.24V231H194.696V203.592H189.944ZM209.143 205.848C209.271 202.424 210.391 199.784 212.503 197.928C214.615 196.072 217.479 195.144 221.095 195.144C223.495 195.144 225.543 195.56 227.239 196.392C228.967 197.224 230.263 198.36 231.127 199.8C232.023 201.24 232.471 202.856 232.471 204.648C232.471 206.76 231.943 208.488 230.887 209.832C229.831 211.144 228.599 212.04 227.191 212.52V212.712C229.015 213.32 230.455 214.328 231.511 215.736C232.567 217.144 233.095 218.952 233.095 221.16C233.095 223.144 232.631 224.904 231.703 226.44C230.807 227.944 229.479 229.128 227.719 229.992C225.991 230.856 223.927 231.288 221.527 231.288C217.687 231.288 214.615 230.344 212.311 228.456C210.039 226.568 208.839 223.72 208.711 219.912H216.679C216.711 221.32 217.111 222.44 217.879 223.272C218.647 224.072 219.767 224.472 221.239 224.472C222.487 224.472 223.447 224.12 224.119 223.416C224.823 222.68 225.175 221.72 225.175 220.536C225.175 219 224.679 217.896 223.687 217.224C222.727 216.52 221.175 216.168 219.031 216.168H217.495V209.496H219.031C220.663 209.496 221.975 209.224 222.967 208.68C223.991 208.104 224.503 207.096 224.503 205.656C224.503 204.504 224.183 203.608 223.543 202.968C222.903 202.328 222.023 202.008 220.903 202.008C219.687 202.008 218.775 202.376 218.167 203.112C217.591 203.848 217.255 204.76 217.159 205.848H209.143Z" fill="#165CAA"/>
<defs>
<filter id="filter0_d_20_1618" x="16" y="5" width="207" height="180" filterUnits="userSpaceOnUse" color-interpolation-filters="sRGB">
<feFlood flood-opacity="0" result="BackgroundImageFix"/>
<feColorMatrix in="SourceAlpha" type="matrix" values="0 0 0 0 0 0 0 0 0 0 0 0 0 0 0 0 0 0 127 0" result="hardAlpha"/>
<feOffset dx="-2" dy="-2"/>
<feGaussianBlur stdDeviation="2"/>
<feComposite in2="hardAlpha" operator="out"/>
<feColorMatrix type="matrix" values="0 0 0 0 0 0 0 0 0 0 0 0 0 0 0 0 0 0 0.25 0"/>
<feBlend mode="normal" in2="BackgroundImageFix" result="effect1_dropShadow_20_1618"/>
<feBlend mode="normal" in="SourceGraphic" in2="effect1_dropShadow_20_1618" result="shape"/>
</filter>
<linearGradient id="paint0_linear_20_1618" x1="23.0017" y1="24.3634" x2="141.094" y2="199.592" gradientUnits="userSpaceOnUse">
<stop stop-color="#CBCED0"/>
<stop offset="1" stop-color="#84838B"/>
</linearGradient>
<linearGradient id="paint1_linear_20_1618" x1="100.391" y1="64.2637" x2="204.602" y2="171.383" gradientUnits="userSpaceOnUse">
<stop stop-color="#266CC2"/>
<stop offset="1" stop-color="#165CAA"/>
</linearGradient>
</defs>
</svg>
