<svg width="256" height="256" viewBox="0 0 256 256" fill="none" xmlns="http://www.w3.org/2000/svg">
<path d="M196 0H60C26.8629 0 0 26.8629 0 60V196C0 229.137 26.8629 256 60 256H196C229.137 256 256 229.137 256 196V60C256 26.8629 229.137 0 196 0Z" fill="#EEEFF4"/>
<g filter="url(#filter0_d_20_1528)">
<path fill-rule="evenodd" clip-rule="evenodd" d="M117.527 151.771C65.3222 151.771 23.0017 123.25 23.0017 88.0672C23.0017 52.8845 65.3222 24.3634 117.527 24.3634C169.732 24.3634 212.052 52.8845 212.052 88.0672C212.052 123.25 169.732 151.771 117.527 151.771ZM131.995 49.2694C92.3153 49.2694 60.1482 68.7676 60.1482 92.8199C60.1482 116.872 92.3153 136.37 131.995 136.37C171.675 136.37 200.958 123.04 200.958 92.8199C200.958 62.6093 171.675 49.2694 131.995 49.2694Z" fill="url(#paint0_linear_20_1528)"/>
<path fill-rule="evenodd" clip-rule="evenodd" d="M166.891 122.926C166.891 122.926 172.649 124.65 175.995 126.33C177.156 126.913 179.164 128.076 180.613 129.604C182.032 131.1 182.724 132.615 182.724 132.615L205.418 170.589L168.738 170.605L151.585 138.639C151.585 138.639 148.073 132.65 145.911 130.913C144.109 129.465 143.34 128.949 141.557 128.949C140.316 128.949 132.842 128.949 132.842 128.949L132.849 170.582L100.391 170.595V64.2474H165.571C165.571 64.2474 195.259 64.7788 195.259 92.8091C195.259 120.839 166.891 122.926 166.891 122.926ZM152.773 87.3158L133.123 87.3032L133.113 105.386L152.773 105.38C152.773 105.38 161.877 105.352 161.877 96.1813C161.877 86.8263 152.773 87.3158 152.773 87.3158Z" fill="url(#paint1_linear_20_1528)"/>
</g>
<path d="M189.406 209.976L188.062 216.264H193.822V223.656H186.478L184.894 231H177.214L178.798 223.656H170.83L169.246 231H161.566L163.15 223.656H156.046V216.264H164.734L166.078 209.976H159.118V202.584H167.614L169.15 195.48H176.83L175.294 202.584H183.262L184.798 195.48H192.478L190.942 202.584H196.894V209.976H189.406ZM181.726 209.976H173.758L172.414 216.264H180.382L181.726 209.976ZM200.364 224.424C201.452 223.56 201.948 223.16 201.852 223.224C204.988 220.632 207.452 218.504 209.244 216.84C211.068 215.176 212.604 213.432 213.852 211.608C215.1 209.784 215.724 208.008 215.724 206.28C215.724 204.968 215.42 203.944 214.812 203.208C214.204 202.472 213.292 202.104 212.076 202.104C210.86 202.104 209.9 202.568 209.196 203.496C208.524 204.392 208.188 205.672 208.188 207.336H200.268C200.332 204.616 200.908 202.344 201.996 200.52C203.116 198.696 204.572 197.352 206.364 196.488C208.188 195.624 210.204 195.192 212.412 195.192C216.22 195.192 219.084 196.168 221.004 198.12C222.956 200.072 223.932 202.616 223.932 205.752C223.932 209.176 222.764 212.36 220.428 215.304C218.092 218.216 215.116 221.064 211.5 223.848H224.46V230.52H200.364V224.424Z" fill="#165CAA"/>
<defs>
<filter id="filter0_d_20_1528" x="16" y="5" width="207" height="180" filterUnits="userSpaceOnUse" color-interpolation-filters="sRGB">
<feFlood flood-opacity="0" result="BackgroundImageFix"/>
<feColorMatrix in="SourceAlpha" type="matrix" values="0 0 0 0 0 0 0 0 0 0 0 0 0 0 0 0 0 0 127 0" result="hardAlpha"/>
<feOffset dx="-2" dy="-2"/>
<feGaussianBlur stdDeviation="2"/>
<feComposite in2="hardAlpha" operator="out"/>
<feColorMatrix type="matrix" values="0 0 0 0 0 0 0 0 0 0 0 0 0 0 0 0 0 0 0.25 0"/>
<feBlend mode="normal" in2="BackgroundImageFix" result="effect1_dropShadow_20_1528"/>
<feBlend mode="normal" in="SourceGraphic" in2="effect1_dropShadow_20_1528" result="shape"/>
</filter>
<linearGradient id="paint0_linear_20_1528" x1="23.0017" y1="24.3634" x2="141.094" y2="199.592" gradientUnits="userSpaceOnUse">
<stop stop-color="#CBCED0"/>
<stop offset="1" stop-color="#84838B"/>
</linearGradient>
<linearGradient id="paint1_linear_20_1528" x1="100.391" y1="64.2637" x2="204.602" y2="171.383" gradientUnits="userSpaceOnUse">
<stop stop-color="#266CC2"/>
<stop offset="1" stop-color="#165CAA"/>
</linearGradient>
</defs>
</svg>
