<svg width="256" height="256" viewBox="0 0 256 256" fill="none" xmlns="http://www.w3.org/2000/svg">
<path d="M196 0H60C26.8629 0 0 26.8629 0 60V196C0 229.137 26.8629 256 60 256H196C229.137 256 256 229.137 256 196V60C256 26.8629 229.137 0 196 0Z" fill="#EEEFF4"/>
<g filter="url(#filter0_d_20_1537)">
<path fill-rule="evenodd" clip-rule="evenodd" d="M117.527 151.771C65.3222 151.771 23.0017 123.25 23.0017 88.0672C23.0017 52.8845 65.3222 24.3634 117.527 24.3634C169.732 24.3634 212.052 52.8845 212.052 88.0672C212.052 123.25 169.732 151.771 117.527 151.771ZM131.995 49.2694C92.3153 49.2694 60.1482 68.7676 60.1482 92.8199C60.1482 116.872 92.3153 136.37 131.995 136.37C171.675 136.37 200.958 123.04 200.958 92.8199C200.958 62.6093 171.675 49.2694 131.995 49.2694Z" fill="url(#paint0_linear_20_1537)"/>
<path fill-rule="evenodd" clip-rule="evenodd" d="M166.891 122.926C166.891 122.926 172.649 124.65 175.995 126.33C177.156 126.913 179.164 128.076 180.613 129.604C182.032 131.1 182.724 132.615 182.724 132.615L205.418 170.589L168.738 170.605L151.585 138.639C151.585 138.639 148.073 132.65 145.911 130.913C144.109 129.465 143.34 128.949 141.557 128.949C140.316 128.949 132.842 128.949 132.842 128.949L132.849 170.582L100.391 170.595V64.2474H165.571C165.571 64.2474 195.259 64.7788 195.259 92.8091C195.259 120.839 166.891 122.926 166.891 122.926ZM152.773 87.3158L133.123 87.3032L133.113 105.386L152.773 105.38C152.773 105.38 161.877 105.352 161.877 96.1813C161.877 86.8263 152.773 87.3158 152.773 87.3158Z" fill="url(#paint1_linear_20_1537)"/>
</g>
<path d="M188.586 209.976L187.242 216.264H193.002V223.656H185.658L184.074 231H176.394L177.978 223.656H170.01L168.426 231H160.746L162.33 223.656H155.226V216.264H163.914L165.258 209.976H158.298V202.584H166.794L168.33 195.48H176.01L174.474 202.584H182.442L183.978 195.48H191.658L190.122 202.584H196.074V209.976H188.586ZM180.906 209.976H172.938L171.594 216.264H179.562L180.906 209.976ZM200.12 205.848C200.248 202.424 201.368 199.784 203.48 197.928C205.592 196.072 208.456 195.144 212.072 195.144C214.472 195.144 216.52 195.56 218.216 196.392C219.944 197.224 221.24 198.36 222.104 199.8C223 201.24 223.448 202.856 223.448 204.648C223.448 206.76 222.92 208.488 221.864 209.832C220.808 211.144 219.576 212.04 218.168 212.52V212.712C219.992 213.32 221.432 214.328 222.488 215.736C223.544 217.144 224.072 218.952 224.072 221.16C224.072 223.144 223.608 224.904 222.68 226.44C221.784 227.944 220.456 229.128 218.696 229.992C216.968 230.856 214.904 231.288 212.504 231.288C208.664 231.288 205.592 230.344 203.288 228.456C201.016 226.568 199.816 223.72 199.688 219.912H207.656C207.688 221.32 208.088 222.44 208.856 223.272C209.624 224.072 210.744 224.472 212.216 224.472C213.464 224.472 214.424 224.12 215.096 223.416C215.8 222.68 216.152 221.72 216.152 220.536C216.152 219 215.656 217.896 214.664 217.224C213.704 216.52 212.152 216.168 210.008 216.168H208.472V209.496H210.008C211.64 209.496 212.952 209.224 213.944 208.68C214.968 208.104 215.48 207.096 215.48 205.656C215.48 204.504 215.16 203.608 214.52 202.968C213.88 202.328 213 202.008 211.88 202.008C210.664 202.008 209.752 202.376 209.144 203.112C208.568 203.848 208.232 204.76 208.136 205.848H200.12Z" fill="#165CAA"/>
<defs>
<filter id="filter0_d_20_1537" x="16" y="5" width="207" height="180" filterUnits="userSpaceOnUse" color-interpolation-filters="sRGB">
<feFlood flood-opacity="0" result="BackgroundImageFix"/>
<feColorMatrix in="SourceAlpha" type="matrix" values="0 0 0 0 0 0 0 0 0 0 0 0 0 0 0 0 0 0 127 0" result="hardAlpha"/>
<feOffset dx="-2" dy="-2"/>
<feGaussianBlur stdDeviation="2"/>
<feComposite in2="hardAlpha" operator="out"/>
<feColorMatrix type="matrix" values="0 0 0 0 0 0 0 0 0 0 0 0 0 0 0 0 0 0 0.25 0"/>
<feBlend mode="normal" in2="BackgroundImageFix" result="effect1_dropShadow_20_1537"/>
<feBlend mode="normal" in="SourceGraphic" in2="effect1_dropShadow_20_1537" result="shape"/>
</filter>
<linearGradient id="paint0_linear_20_1537" x1="23.0017" y1="24.3634" x2="141.094" y2="199.592" gradientUnits="userSpaceOnUse">
<stop stop-color="#CBCED0"/>
<stop offset="1" stop-color="#84838B"/>
</linearGradient>
<linearGradient id="paint1_linear_20_1537" x1="100.391" y1="64.2637" x2="204.602" y2="171.383" gradientUnits="userSpaceOnUse">
<stop stop-color="#266CC2"/>
<stop offset="1" stop-color="#165CAA"/>
</linearGradient>
</defs>
</svg>
