<svg width="256" height="256" viewBox="0 0 256 256" fill="none" xmlns="http://www.w3.org/2000/svg">
<path d="M196 0H60C26.8629 0 0 26.8629 0 60V196C0 229.137 26.8629 256 60 256H196C229.137 256 256 229.137 256 196V60C256 26.8629 229.137 0 196 0Z" fill="#EEEFF4"/>
<g filter="url(#filter0_d_20_1555)">
<path fill-rule="evenodd" clip-rule="evenodd" d="M117.526 151.771C65.3219 151.771 23.0015 123.25 23.0015 88.0672C23.0015 52.8845 65.3219 24.3634 117.526 24.3634C169.731 24.3634 212.051 52.8845 212.051 88.0672C212.051 123.25 169.731 151.771 117.526 151.771ZM131.995 49.2694C92.315 49.2694 60.148 68.7676 60.148 92.8199C60.148 116.872 92.315 136.37 131.995 136.37C171.675 136.37 200.958 123.04 200.958 92.8199C200.958 62.6093 171.675 49.2694 131.995 49.2694Z" fill="url(#paint0_linear_20_1555)"/>
<path fill-rule="evenodd" clip-rule="evenodd" d="M166.891 122.926C166.891 122.926 172.649 124.65 175.995 126.33C177.156 126.913 179.164 128.076 180.613 129.604C182.032 131.1 182.724 132.615 182.724 132.615L205.418 170.589L168.738 170.605L151.585 138.639C151.585 138.639 148.073 132.65 145.911 130.913C144.109 129.465 143.34 128.949 141.557 128.949C140.316 128.949 132.842 128.949 132.842 128.949L132.849 170.582L100.391 170.595V64.2474H165.571C165.571 64.2474 195.259 64.7788 195.259 92.8091C195.259 120.839 166.891 122.926 166.891 122.926ZM152.773 87.3158L133.123 87.3032L133.113 105.386L152.773 105.38C152.773 105.38 161.877 105.352 161.877 96.1813C161.877 86.8263 152.773 87.3158 152.773 87.3158Z" fill="url(#paint1_linear_20_1555)"/>
</g>
<path d="M187.508 209.976L186.164 216.264H191.924V223.656H184.58L182.996 231H175.316L176.9 223.656H168.932L167.348 231H159.668L161.252 223.656H154.148V216.264H162.836L164.18 209.976H157.22V202.584H165.716L167.252 195.48H174.932L173.396 202.584H181.364L182.9 195.48H190.58L189.044 202.584H194.996V209.976H187.508ZM179.828 209.976H171.86L170.516 216.264H178.484L179.828 209.976ZM223.426 203.112H208.45V209.736C209.09 209.032 209.986 208.456 211.138 208.008C212.29 207.56 213.538 207.336 214.882 207.336C217.282 207.336 219.266 207.88 220.834 208.968C222.434 210.056 223.602 211.464 224.338 213.192C225.074 214.92 225.442 216.792 225.442 218.808C225.442 222.552 224.386 225.528 222.274 227.736C220.162 229.912 217.186 231 213.346 231C210.786 231 208.562 230.568 206.674 229.704C204.786 228.808 203.33 227.576 202.306 226.008C201.282 224.44 200.722 222.632 200.626 220.584H208.642C208.834 221.576 209.298 222.408 210.034 223.08C210.77 223.72 211.778 224.04 213.058 224.04C214.562 224.04 215.682 223.56 216.418 222.6C217.154 221.64 217.522 220.36 217.522 218.76C217.522 217.192 217.138 215.992 216.37 215.16C215.602 214.328 214.482 213.912 213.01 213.912C211.922 213.912 211.026 214.184 210.322 214.728C209.618 215.24 209.154 215.928 208.93 216.792H201.01V195.912H223.426V203.112Z" fill="#165CAA"/>
<defs>
<filter id="filter0_d_20_1555" x="16" y="5" width="207" height="180" filterUnits="userSpaceOnUse" color-interpolation-filters="sRGB">
<feFlood flood-opacity="0" result="BackgroundImageFix"/>
<feColorMatrix in="SourceAlpha" type="matrix" values="0 0 0 0 0 0 0 0 0 0 0 0 0 0 0 0 0 0 127 0" result="hardAlpha"/>
<feOffset dx="-2" dy="-2"/>
<feGaussianBlur stdDeviation="2"/>
<feComposite in2="hardAlpha" operator="out"/>
<feColorMatrix type="matrix" values="0 0 0 0 0 0 0 0 0 0 0 0 0 0 0 0 0 0 0.25 0"/>
<feBlend mode="normal" in2="BackgroundImageFix" result="effect1_dropShadow_20_1555"/>
<feBlend mode="normal" in="SourceGraphic" in2="effect1_dropShadow_20_1555" result="shape"/>
</filter>
<linearGradient id="paint0_linear_20_1555" x1="23.0015" y1="24.3634" x2="141.094" y2="199.592" gradientUnits="userSpaceOnUse">
<stop stop-color="#CBCED0"/>
<stop offset="1" stop-color="#84838B"/>
</linearGradient>
<linearGradient id="paint1_linear_20_1555" x1="100.391" y1="64.2637" x2="204.602" y2="171.383" gradientUnits="userSpaceOnUse">
<stop stop-color="#266CC2"/>
<stop offset="1" stop-color="#165CAA"/>
</linearGradient>
</defs>
</svg>
