<svg width="256" height="256" viewBox="0 0 256 256" fill="none" xmlns="http://www.w3.org/2000/svg">
<path d="M196 0H60C26.8629 0 0 26.8629 0 60V196C0 229.137 26.8629 256 60 256H196C229.137 256 256 229.137 256 196V60C256 26.8629 229.137 0 196 0Z" fill="#EEEFF4"/>
<g filter="url(#filter0_d_20_1564)">
<path fill-rule="evenodd" clip-rule="evenodd" d="M117.527 151.771C65.3222 151.771 23.0017 123.25 23.0017 88.0672C23.0017 52.8845 65.3222 24.3634 117.527 24.3634C169.732 24.3634 212.052 52.8845 212.052 88.0672C212.052 123.25 169.732 151.771 117.527 151.771ZM131.995 49.2694C92.3153 49.2694 60.1482 68.7676 60.1482 92.8199C60.1482 116.872 92.3153 136.37 131.995 136.37C171.675 136.37 200.958 123.04 200.958 92.8199C200.958 62.6093 171.675 49.2694 131.995 49.2694Z" fill="url(#paint0_linear_20_1564)"/>
<path fill-rule="evenodd" clip-rule="evenodd" d="M166.891 122.926C166.891 122.926 172.649 124.65 175.995 126.33C177.156 126.913 179.164 128.076 180.613 129.604C182.032 131.1 182.724 132.615 182.724 132.615L205.418 170.589L168.738 170.605L151.585 138.639C151.585 138.639 148.073 132.65 145.911 130.913C144.109 129.465 143.34 128.949 141.557 128.949C140.316 128.949 132.842 128.949 132.842 128.949L132.849 170.582L100.391 170.595V64.2474H165.571C165.571 64.2474 195.259 64.7788 195.259 92.8091C195.259 120.839 166.891 122.926 166.891 122.926ZM152.773 87.3158L133.123 87.3032L133.113 105.386L152.773 105.38C152.773 105.38 161.877 105.352 161.877 96.1813C161.877 86.8263 152.773 87.3158 152.773 87.3158Z" fill="url(#paint1_linear_20_1564)"/>
</g>
<path d="M187.336 209.976L185.992 216.264H191.752V223.656H184.408L182.824 231H175.144L176.728 223.656H168.76L167.176 231H159.496L161.08 223.656H153.976V216.264H162.664L164.008 209.976H157.048V202.584H165.544L167.08 195.48H174.76L173.224 202.584H181.192L182.728 195.48H190.408L188.872 202.584H194.824V209.976H187.336ZM179.656 209.976H171.688L170.344 216.264H178.312L179.656 209.976ZM215.91 205.416C215.654 204.232 215.206 203.352 214.566 202.776C213.926 202.168 213.014 201.864 211.83 201.864C210.006 201.864 208.694 202.664 207.894 204.264C207.094 205.832 206.678 208.328 206.646 211.752C207.35 210.632 208.358 209.752 209.67 209.112C211.014 208.472 212.486 208.152 214.086 208.152C217.222 208.152 219.734 209.144 221.622 211.128C223.542 213.112 224.502 215.88 224.502 219.432C224.502 221.768 224.022 223.816 223.062 225.576C222.134 227.336 220.758 228.712 218.934 229.704C217.142 230.696 215.014 231.192 212.55 231.192C207.622 231.192 204.198 229.656 202.278 226.584C200.358 223.48 199.398 219.032 199.398 213.24C199.398 207.16 200.406 202.648 202.422 199.704C204.47 196.728 207.734 195.24 212.214 195.24C214.614 195.24 216.63 195.72 218.262 196.68C219.926 197.608 221.174 198.84 222.006 200.376C222.87 201.912 223.382 203.592 223.542 205.416H215.91ZM212.118 214.632C210.742 214.632 209.59 215.048 208.662 215.88C207.766 216.68 207.318 217.832 207.318 219.336C207.318 220.872 207.734 222.072 208.566 222.936C209.43 223.8 210.646 224.232 212.214 224.232C213.622 224.232 214.726 223.816 215.526 222.984C216.358 222.12 216.774 220.952 216.774 219.48C216.774 217.976 216.374 216.792 215.574 215.928C214.774 215.064 213.622 214.632 212.118 214.632Z" fill="#165CAA"/>
<defs>
<filter id="filter0_d_20_1564" x="16" y="5" width="207" height="180" filterUnits="userSpaceOnUse" color-interpolation-filters="sRGB">
<feFlood flood-opacity="0" result="BackgroundImageFix"/>
<feColorMatrix in="SourceAlpha" type="matrix" values="0 0 0 0 0 0 0 0 0 0 0 0 0 0 0 0 0 0 127 0" result="hardAlpha"/>
<feOffset dx="-2" dy="-2"/>
<feGaussianBlur stdDeviation="2"/>
<feComposite in2="hardAlpha" operator="out"/>
<feColorMatrix type="matrix" values="0 0 0 0 0 0 0 0 0 0 0 0 0 0 0 0 0 0 0.25 0"/>
<feBlend mode="normal" in2="BackgroundImageFix" result="effect1_dropShadow_20_1564"/>
<feBlend mode="normal" in="SourceGraphic" in2="effect1_dropShadow_20_1564" result="shape"/>
</filter>
<linearGradient id="paint0_linear_20_1564" x1="23.0017" y1="24.3634" x2="141.094" y2="199.592" gradientUnits="userSpaceOnUse">
<stop stop-color="#CBCED0"/>
<stop offset="1" stop-color="#84838B"/>
</linearGradient>
<linearGradient id="paint1_linear_20_1564" x1="100.391" y1="64.2637" x2="204.602" y2="171.383" gradientUnits="userSpaceOnUse">
<stop stop-color="#266CC2"/>
<stop offset="1" stop-color="#165CAA"/>
</linearGradient>
</defs>
</svg>
