<svg width="256" height="256" viewBox="0 0 256 256" fill="none" xmlns="http://www.w3.org/2000/svg">
<path d="M196 0H60C26.8629 0 0 26.8629 0 60V196C0 229.137 26.8629 256 60 256H196C229.137 256 256 229.137 256 196V60C256 26.8629 229.137 0 196 0Z" fill="#EEEFF4"/>
<g filter="url(#filter0_d_20_1582)">
<path fill-rule="evenodd" clip-rule="evenodd" d="M117.527 151.771C65.3222 151.771 23.0017 123.25 23.0017 88.0672C23.0017 52.8845 65.3222 24.3634 117.527 24.3634C169.732 24.3634 212.052 52.8845 212.052 88.0672C212.052 123.25 169.732 151.771 117.527 151.771ZM131.995 49.2694C92.3153 49.2694 60.1482 68.7676 60.1482 92.8199C60.1482 116.872 92.3153 136.37 131.995 136.37C171.675 136.37 200.958 123.04 200.958 92.8199C200.958 62.6093 171.675 49.2694 131.995 49.2694Z" fill="url(#paint0_linear_20_1582)"/>
<path fill-rule="evenodd" clip-rule="evenodd" d="M166.891 122.926C166.891 122.926 172.649 124.65 175.995 126.33C177.156 126.913 179.164 128.076 180.613 129.604C182.032 131.1 182.724 132.615 182.724 132.615L205.418 170.589L168.738 170.605L151.585 138.639C151.585 138.639 148.073 132.65 145.911 130.913C144.109 129.465 143.34 128.949 141.557 128.949C140.316 128.949 132.842 128.949 132.842 128.949L132.849 170.582L100.391 170.595V64.2474H165.571C165.571 64.2474 195.259 64.7788 195.259 92.8091C195.259 120.839 166.891 122.926 166.891 122.926ZM152.773 87.3158L133.123 87.3032L133.113 105.386L152.773 105.38C152.773 105.38 161.877 105.352 161.877 96.1813C161.877 86.8263 152.773 87.3158 152.773 87.3158Z" fill="url(#paint1_linear_20_1582)"/>
</g>
<path d="M187.554 209.976L186.21 216.264H191.97V223.656H184.626L183.042 231H175.362L176.946 223.656H168.978L167.394 231H159.714L161.298 223.656H154.194V216.264H162.882L164.226 209.976H157.266V202.584H165.762L167.298 195.48H174.978L173.442 202.584H181.41L182.946 195.48H190.626L189.09 202.584H195.042V209.976H187.554ZM179.874 209.976H171.906L170.562 216.264H178.53L179.874 209.976ZM204.561 212.184C201.553 210.584 200.049 208.072 200.049 204.648C200.049 202.92 200.497 201.352 201.393 199.944C202.289 198.504 203.649 197.368 205.473 196.536C207.297 195.672 209.537 195.24 212.193 195.24C214.849 195.24 217.073 195.672 218.865 196.536C220.689 197.368 222.049 198.504 222.945 199.944C223.841 201.352 224.289 202.92 224.289 204.648C224.289 206.376 223.873 207.88 223.041 209.16C222.241 210.44 221.153 211.448 219.777 212.184C221.505 213.016 222.833 214.168 223.761 215.64C224.689 217.08 225.153 218.776 225.153 220.728C225.153 223 224.577 224.968 223.425 226.632C222.273 228.264 220.705 229.512 218.721 230.376C216.769 231.24 214.593 231.672 212.193 231.672C209.793 231.672 207.601 231.24 205.617 230.376C203.665 229.512 202.113 228.264 200.961 226.632C199.809 224.968 199.233 223 199.233 220.728C199.233 218.744 199.697 217.032 200.625 215.592C201.553 214.12 202.865 212.984 204.561 212.184ZM216.321 205.896C216.321 204.584 215.937 203.576 215.169 202.872C214.433 202.136 213.441 201.768 212.193 201.768C210.945 201.768 209.937 202.136 209.169 202.872C208.433 203.608 208.065 204.632 208.065 205.944C208.065 207.192 208.449 208.184 209.217 208.92C209.985 209.624 210.977 209.976 212.193 209.976C213.409 209.976 214.401 209.608 215.169 208.872C215.937 208.136 216.321 207.144 216.321 205.896ZM212.193 215.736C210.689 215.736 209.473 216.152 208.545 216.984C207.617 217.784 207.153 218.904 207.153 220.344C207.153 221.688 207.601 222.792 208.497 223.656C209.425 224.52 210.657 224.952 212.193 224.952C213.729 224.952 214.929 224.52 215.793 223.656C216.689 222.792 217.137 221.688 217.137 220.344C217.137 218.936 216.673 217.816 215.745 216.984C214.849 216.152 213.665 215.736 212.193 215.736Z" fill="#165CAA"/>
<defs>
<filter id="filter0_d_20_1582" x="16" y="5" width="207" height="180" filterUnits="userSpaceOnUse" color-interpolation-filters="sRGB">
<feFlood flood-opacity="0" result="BackgroundImageFix"/>
<feColorMatrix in="SourceAlpha" type="matrix" values="0 0 0 0 0 0 0 0 0 0 0 0 0 0 0 0 0 0 127 0" result="hardAlpha"/>
<feOffset dx="-2" dy="-2"/>
<feGaussianBlur stdDeviation="2"/>
<feComposite in2="hardAlpha" operator="out"/>
<feColorMatrix type="matrix" values="0 0 0 0 0 0 0 0 0 0 0 0 0 0 0 0 0 0 0.25 0"/>
<feBlend mode="normal" in2="BackgroundImageFix" result="effect1_dropShadow_20_1582"/>
<feBlend mode="normal" in="SourceGraphic" in2="effect1_dropShadow_20_1582" result="shape"/>
</filter>
<linearGradient id="paint0_linear_20_1582" x1="23.0017" y1="24.3634" x2="141.094" y2="199.592" gradientUnits="userSpaceOnUse">
<stop stop-color="#CBCED0"/>
<stop offset="1" stop-color="#84838B"/>
</linearGradient>
<linearGradient id="paint1_linear_20_1582" x1="100.391" y1="64.2637" x2="204.602" y2="171.383" gradientUnits="userSpaceOnUse">
<stop stop-color="#266CC2"/>
<stop offset="1" stop-color="#165CAA"/>
</linearGradient>
</defs>
</svg>
