<svg width="256" height="256" viewBox="0 0 256 256" fill="none" xmlns="http://www.w3.org/2000/svg">
<path d="M196 0H60C26.8629 0 0 26.8629 0 60V196C0 229.137 26.8629 256 60 256H196C229.137 256 256 229.137 256 196V60C256 26.8629 229.137 0 196 0Z" fill="#EEEFF4"/>
<g filter="url(#filter0_d_20_1690)">
<path fill-rule="evenodd" clip-rule="evenodd" d="M117.527 151.771C65.3222 151.771 23.0017 123.25 23.0017 88.0672C23.0017 52.8845 65.3222 24.3634 117.527 24.3634C169.732 24.3634 212.052 52.8845 212.052 88.0672C212.052 123.25 169.732 151.771 117.527 151.771ZM131.995 49.2694C92.3153 49.2694 60.1482 68.7676 60.1482 92.8199C60.1482 116.872 92.3153 136.37 131.995 136.37C171.675 136.37 200.958 123.04 200.958 92.8199C200.958 62.6093 171.675 49.2694 131.995 49.2694Z" fill="url(#paint0_linear_20_1690)"/>
<path fill-rule="evenodd" clip-rule="evenodd" d="M166.891 122.926C166.891 122.926 172.649 124.65 175.995 126.33C177.156 126.913 179.164 128.076 180.613 129.604C182.032 131.1 182.724 132.615 182.724 132.615L205.418 170.589L168.738 170.605L151.585 138.639C151.585 138.639 148.073 132.65 145.911 130.913C144.109 129.465 143.34 128.949 141.557 128.949C140.316 128.949 132.842 128.949 132.842 128.949L132.849 170.582L100.391 170.595V64.2474H165.571C165.571 64.2474 195.259 64.7788 195.259 92.8091C195.259 120.839 166.891 122.926 166.891 122.926ZM152.773 87.3158L133.123 87.3032L133.113 105.386L152.773 105.38C152.773 105.38 161.877 105.352 161.877 96.1813C161.877 86.8263 152.773 87.3158 152.773 87.3158Z" fill="url(#paint1_linear_20_1690)"/>
</g>
<path d="M188.351 209.976L187.007 216.264H192.767V223.656H185.423L183.839 231H176.159L177.743 223.656H169.775L168.191 231H160.511L162.095 223.656H154.991V216.264H163.679L165.023 209.976H158.063V202.584H166.559L168.095 195.48H175.775L174.239 202.584H182.207L183.743 195.48H191.423L189.887 202.584H195.839V209.976H188.351ZM180.671 209.976H172.703L171.359 216.264H179.327L180.671 209.976ZM208.43 220.728C208.91 223.256 210.382 224.52 212.846 224.52C214.542 224.52 215.742 223.768 216.446 222.264C217.15 220.76 217.502 218.312 217.502 214.92C216.798 215.912 215.838 216.68 214.622 217.224C213.406 217.768 212.046 218.04 210.542 218.04C208.494 218.04 206.67 217.624 205.07 216.792C203.47 215.928 202.206 214.664 201.278 213C200.382 211.304 199.934 209.256 199.934 206.856C199.934 204.488 200.414 202.424 201.374 200.664C202.366 198.904 203.758 197.544 205.55 196.584C207.374 195.624 209.518 195.144 211.982 195.144C216.718 195.144 220.03 196.616 221.918 199.56C223.806 202.504 224.75 206.84 224.75 212.568C224.75 216.728 224.366 220.168 223.598 222.888C222.862 225.576 221.598 227.624 219.806 229.032C218.046 230.44 215.63 231.144 212.558 231.144C210.126 231.144 208.046 230.664 206.318 229.704C204.622 228.744 203.31 227.48 202.382 225.912C201.486 224.344 200.974 222.616 200.846 220.728H208.43ZM212.414 211.56C213.758 211.56 214.83 211.16 215.63 210.36C216.43 209.528 216.83 208.408 216.83 207C216.83 205.464 216.414 204.28 215.582 203.448C214.75 202.616 213.63 202.2 212.222 202.2C210.814 202.2 209.694 202.632 208.862 203.496C208.062 204.328 207.662 205.48 207.662 206.952C207.662 208.328 208.062 209.448 208.862 210.312C209.694 211.144 210.878 211.56 212.414 211.56Z" fill="#165CAA"/>
<defs>
<filter id="filter0_d_20_1690" x="16" y="5" width="207" height="180" filterUnits="userSpaceOnUse" color-interpolation-filters="sRGB">
<feFlood flood-opacity="0" result="BackgroundImageFix"/>
<feColorMatrix in="SourceAlpha" type="matrix" values="0 0 0 0 0 0 0 0 0 0 0 0 0 0 0 0 0 0 127 0" result="hardAlpha"/>
<feOffset dx="-2" dy="-2"/>
<feGaussianBlur stdDeviation="2"/>
<feComposite in2="hardAlpha" operator="out"/>
<feColorMatrix type="matrix" values="0 0 0 0 0 0 0 0 0 0 0 0 0 0 0 0 0 0 0.25 0"/>
<feBlend mode="normal" in2="BackgroundImageFix" result="effect1_dropShadow_20_1690"/>
<feBlend mode="normal" in="SourceGraphic" in2="effect1_dropShadow_20_1690" result="shape"/>
</filter>
<linearGradient id="paint0_linear_20_1690" x1="23.0017" y1="24.3634" x2="141.094" y2="199.592" gradientUnits="userSpaceOnUse">
<stop stop-color="#CBCED0"/>
<stop offset="1" stop-color="#84838B"/>
</linearGradient>
<linearGradient id="paint1_linear_20_1690" x1="100.391" y1="64.2637" x2="204.602" y2="171.383" gradientUnits="userSpaceOnUse">
<stop stop-color="#266CC2"/>
<stop offset="1" stop-color="#165CAA"/>
</linearGradient>
</defs>
</svg>
